<svg xmlns="http://www.w3.org/2000/svg" version="1.1" xmlns:xlink="http://www.w3.org/1999/xlink" xmlns:svgjs="http://svgjs.dev/svgjs" width="1440" height="720" preserveAspectRatio="none" viewBox="0 0 1440 720"><g mask="url(&quot;#SvgjsMask1431&quot;)" fill="none"><rect width="1440" height="720" x="0" y="0" fill="rgba(72, 166, 167, 1)"></rect><path d="M0,411.736C75.128,421.46,129.093,340.711,190.1,295.801C247.007,253.909,326.527,225.796,345.176,157.637C363.851,89.384,299.209,28.106,282.133,-40.565C267.342,-100.045,284.971,-166.632,251.736,-218.13C216.6,-272.574,158.719,-310.561,96.41,-328.343C34.344,-346.055,-29.636,-329.132,-92.93,-316.489C-162.157,-302.661,-239.899,-301.038,-289.878,-251.181C-340.727,-200.457,-356.664,-123.346,-358.521,-51.547C-360.257,15.596,-336.699,80.77,-299.916,136.967C-266.489,188.037,-205.909,209.14,-160.904,250.372C-103.738,302.745,-76.889,401.785,0,411.736" fill="#3f9293"></path><path d="M1440 1431.211C1569.5529999999999 1449.472 1661.574 1304.296 1760.414 1218.574 1846.094 1144.2649999999999 1937.716 1071.65 1977.182 965.323 2015.317 862.582 1995.682 750.644 1973.967 643.227 1953.284 540.919 1905.194 451.946 1854.908 360.48 1791.284 244.753 1757.874 97.55499999999995 1640.593 36.84400000000005 1519.89-25.638000000000034 1366.778-9.095000000000027 1241.146 42.76700000000005 1120.837 92.43100000000004 1024.68 194.92399999999998 970.7239999999999 313.37 923.019 418.093 972.706 536.803 963.831 651.537 955.736 756.187 879.34 860.6800000000001 920.933 957.05 962.569 1053.52 1095.237 1064.883 1172.814 1135.749 1272.879 1227.157 1305.797 1412.295 1440 1431.211" fill="#56b5b6"></path></g><defs><mask id="SvgjsMask1431"><rect width="1440" height="720" fill="#ffffff"></rect></mask></defs></svg>